#N canvas 421 227 757 429 12;
#X obj 65 68 vradio 15 1 0 4 empty empty Oscillator 0 -8 0 10 -262144
-1 -1 3;
#X text 88 82 TRI;
#X text 88 67 SIN;
#X text 88 97 SAW;
#X text 88 112 PLS;
#X obj 65 174 ctlout 100;
#X floatatom 65 141 5 0 0 0 - - -;
#X obj 208 62 vsl 15 128 127 0 0 0 empty empty Freq 0 -9 0 10 -262144
-1 -1 10200 1;
#X floatatom 208 198 5 0 0 0 - - -;
#X obj 208 221 ctlout 101;
#X obj 286 62 vsl 15 128 0 127 0 0 empty empty Res 0 -9 0 10 -262144
-1 -1 7300 1;
#X floatatom 286 198 5 0 0 0 - - -;
#X obj 286 221 ctlout 102;
#X obj 392 62 vsl 15 128 0 127 0 0 empty empty Attack 0 -9 0 10 -262144
-1 -1 1500 1;
#X floatatom 392 198 5 0 0 0 - - -;
#X obj 474 62 vsl 15 128 0 127 0 0 empty empty Decay 0 -9 0 10 -262144
-1 -1 0 1;
#X floatatom 474 198 5 0 0 0 - - -;
#X obj 553 62 vsl 15 128 0 127 0 0 empty empty Sustain 0 -9 0 10 -262144
-1 -1 12700 1;
#X floatatom 553 198 5 0 0 0 - - -;
#X obj 633 62 vsl 15 128 0 127 0 0 empty empty Release 0 -9 0 10 -262144
-1 -1 5100 1;
#X floatatom 633 198 5 0 0 0 - - -;
#X obj 392 221 ctlout 103;
#X obj 474 221 ctlout 104;
#X obj 553 221 ctlout 105;
#X obj 633 221 ctlout 106;
#X obj 209 303 makenote 127 250;
#X floatatom 209 276 5 0 0 0 - - -;
#X obj 209 334 noteout;
#X text 57 277 Second Osc?;
#X connect 0 0 6 0;
#X connect 6 0 5 0;
#X connect 7 0 8 0;
#X connect 8 0 9 0;
#X connect 10 0 11 0;
#X connect 11 0 12 0;
#X connect 13 0 14 0;
#X connect 14 0 21 0;
#X connect 15 0 16 0;
#X connect 16 0 22 0;
#X connect 17 0 18 0;
#X connect 18 0 23 0;
#X connect 19 0 20 0;
#X connect 20 0 24 0;
#X connect 25 0 27 0;
#X connect 25 1 27 1;
#X connect 26 0 25 0;
