#N canvas 988 371 450 300 12;
#X obj 307 245 midiout;
#X obj 44 48 vsl 15 128 0 127 0 0 empty empty empty 0 -9 0 10 -262144
-1 -1 0 1;
#X obj 86 48 vsl 15 128 0 127 0 0 empty empty empty 0 -9 0 10 -262144
-1 -1 0 1;
#X obj 130 47 vsl 15 128 0 127 0 0 empty empty empty 0 -9 0 10 -262144
-1 -1 0 1;
#X floatatom 130 184 5 0 0 0 - - -;
#X floatatom 86 184 5 0 0 0 - - -;
#X floatatom 44 184 5 0 0 0 - - -;
#X obj 2 224 ctlout 100;
#X obj 90 271 ctlout 101;
#X obj 133 240 ctlout 102;
#X connect 1 0 6 0;
#X connect 2 0 5 0;
#X connect 3 0 4 0;
#X connect 4 0 9 0;
#X connect 5 0 8 0;
#X connect 6 0 7 0;
