#N canvas 1254 319 488 381 12;
#X obj 412 54 midiout;
#X obj 10 106 vsl 15 128 0 127 0 0 empty empty OSC1 0 -9 0 10 -262144
-1 -1 0 1;
#X obj 90 105 vsl 15 128 0 127 0 0 empty empty OSC2 0 -9 0 10 -262144
-1 -1 0 1;
#X obj 170 106 vsl 15 128 0 127 0 0 empty empty Noise 0 -9 0 10 -262144
-1 -1 0 1;
#X floatatom 170 247 5 0 0 0 - - -;
#X floatatom 90 248 5 0 0 0 - - -;
#X floatatom 10 249 5 0 0 0 - - -;
#X obj 10 272 ctlout 100;
#X obj 90 271 ctlout 101;
#X obj 170 271 ctlout 102;
#X obj 412 15 midiin;
#X obj 250 104 vradio 15 1 0 5 empty empty Octave 0 -8 0 10 -262144
-1 -1 0;
#X floatatom 263 190 5 0 0 0 - - -;
#X obj 244 212 ctlout 103;
#X text 277 101 +2;
#X text 277 162 -2;
#X connect 1 0 6 0;
#X connect 2 0 5 0;
#X connect 3 0 4 0;
#X connect 4 0 9 0;
#X connect 5 0 8 0;
#X connect 6 0 7 0;
#X connect 10 0 0 0;
#X connect 11 0 12 0;
#X connect 11 0 13 0;
